
        <svg xmlns="http://www.w3.org/2000/svg" xmlns:xlink="http://www.w3.org/1999/xlink" version="1.1" width="2815.2188951920375" height="3169.336474898769" viewBox="0 0 2815.2188951920375 3169.336474898769">
			
			<g transform="scale(8.46682374493846) translate(10, 10)">
				<defs id="SvgjsDefs5011"><linearGradient id="SvgjsLinearGradient5018"><stop id="SvgjsStop5019" stop-color="#147d6c" offset="0"/><stop id="SvgjsStop5020" stop-color="#1effff" offset="1"/></linearGradient></defs><g id="SvgjsG5012" featureKey="rootContainer" transform="matrix(6.3004014813942035,0,0,6.3004014813942035,0.000046358657472104394,0.02629501308574099)" fill="#fff"><path xmlns="http://www.w3.org/2000/svg" d="M23.11 55.78L1.69 43.41A3.39 3.39 0 0 1 0 40.48V15.75a3.39 3.39 0 0 1 1.69-2.94L23.11.45a3.39 3.39 0 0 1 3.39 0l21.41 12.37a3.39 3.39 0 0 1 1.69 2.94v24.72a3.39 3.39 0 0 1-1.69 2.94L26.5 55.78a3.39 3.39 0 0 1-3.39 0z"/></g><g id="SvgjsG5013" featureKey="symbolFeature-0" transform="matrix(2.5132392388996307,0,0,2.5132392388996307,116,115.97603338087609)" fill="#000000"><path xmlns="http://www.w3.org/2000/svg" d="M1 0c-.552 0-1 .448-1 1s.448 1 1 1 1-.448 1-1h2c.039 0 .078.019.094.031v.031l.031.063 4.281 16.375v.031c-.005.268-.044.571-.094.719l-1.438 3.813c.206-.039.409-.063.625-.063.162 0 .312.009.469.031l1.313-3.469c.084-.251.116-.493.125-.719.179.092.381.156.594.156h18c.6 0 1.087-.5 1.188-1l2.625-13c.1-.6-.212-1-.813-1h-25c-.138 0-.24.023-.344.063l-.563-2.188h-.063c-.044-.251-.138-.489-.313-.625-.21-.163-.458-.25-.719-.25h-3zm6.5 23c-1.381 0-2.5 1.119-2.5 2.5s1.119 2.5 2.5 2.5 2.5-1.119 2.5-2.5-1.119-2.5-2.5-2.5zm19 0c-1.381 0-2.5 1.119-2.5 2.5s1.119 2.5 2.5 2.5 2.5-1.119 2.5-2.5-1.119-2.5-2.5-2.5zm-15.875 1c.155.314.29.645.344 1h11.969c.054-.355.188-.686.344-1h-12.656z" transform="translate(0 2)"/></g><g id="SvgjsG5014" featureKey="nameFeature-0" transform="matrix(0.7882705306548781,0,0,0.7882705306548781,55.11713709587694,201.98218771533976)" fill="#000000"><path d="M14.04 40.56 c-6.84 0 -11.36 -4.12 -12.92 -8.48 l5.24 -1.6 c1.12 2.92 3.96 5.24 8 5.24 c3.28 0 5.32 -1.68 5.32 -3.52 c0 -1.48 -1 -2.48 -3.68 -3.36 l-7.16 -2.24 c-3.68 -1.16 -6.36 -3.52 -6.32 -7.12 c-0.04 -4.36 4.2 -8.04 10.04 -8.04 c6.04 0 10.52 3.32 12.04 7.2 l-5.08 1.48 c-1.16 -2.28 -3.76 -3.84 -6.92 -3.84 c-2.76 0 -4.52 1.4 -4.52 3.04 c0 1.24 0.84 2.08 2.68 2.64 l6.96 2.24 c4.28 1.32 7.52 3.12 7.52 7.68 c0 4.8 -4.48 8.68 -11.2 8.68 z M47.92 12 l5.48 0 l0 28 l-4.52 0 l-14.08 -18.2 l0 18.2 l-5.48 0 l0 -28 l4.52 0 l14.08 18.16 l0 -18.16 z M79.04 40 l-2.28 -6.08 l-12.6 0 l-2.32 6.08 l-5.68 0 l10.72 -28 l7.12 0 l10.76 28 l-5.72 0 z M65.96 29.08 l8.96 0 l-4.48 -11.84 z M100.6 12 c6.16 0 9.72 5.08 9.72 9.72 c0 4.72 -3.52 9.72 -9.96 9.72 l-7.44 0 l0 8.56 l-5.44 0 l0 -28 l13.12 0 z M100.2 26.56 c2.96 0 4.8 -2.36 4.8 -4.8 c0 -2.48 -1.88 -4.8 -4.56 -4.8 l-7.52 0 l0 9.6 l7.28 0 z M127.28 40.56 c-8.44 0 -14.72 -6.32 -14.72 -14.6 c0 -8.24 6.28 -14.52 14.6 -14.52 c7.56 0 12.28 4.64 13.56 9.08 l-5.36 1.32 c-0.92 -2.72 -3.92 -5.24 -8.16 -5.24 c-5.52 0 -9.04 4.28 -9.04 9.32 s3.52 9.48 9.04 9.48 c4.24 0 7.24 -2.44 8.16 -5.2 l5.32 1.36 c-1.28 4.48 -6 9 -13.4 9 z M165.16 40 l-2.28 -6.08 l-12.6 0 l-2.32 6.08 l-5.68 0 l10.72 -28 l7.12 0 l10.76 28 l-5.72 0 z M152.08 29.08 l8.96 0 l-4.48 -11.84 z M191.36 40 l-6.36 -9.8 l-5.96 0 l0 9.8 l-5.44 0 l0 -28 l13.64 0 c6.08 0 9.6 4.68 9.6 9.12 c0 3.68 -2.16 7.16 -6.12 8.52 l6.96 10.36 l-6.32 0 z M179.04 16.92 l0 8.48 l7.84 0 c2.84 0 4.64 -1.96 4.64 -4.28 c0 -2.24 -1.84 -4.2 -4.44 -4.2 l-8.04 0 z M223.68 12 l0 4.96 l-9.4 0 l0 23.04 l-5.48 0 l0 -23.04 l-9.4 0 l0 -4.96 l24.28 0 z M254.84 25.96 c0 3.8 -1.4 7.16 -3.68 9.72 l3.56 4.32 l-5.48 0 l-1.36 -1.56 c-2.24 1.36 -4.84 2.12 -7.6 2.12 c-8.08 0 -14.56 -6.32 -14.56 -14.6 c0 -8.2 6.48 -14.52 14.56 -14.52 s14.56 6.32 14.56 14.52 z M240.28 35.52 c1.56 0 3 -0.32 4.24 -0.92 l-6.4 -7.32 l6.16 0 l3.56 4.36 c1.04 -1.56 1.64 -3.52 1.64 -5.68 c0 -5.44 -3.72 -9.48 -9.2 -9.48 s-9.2 4.04 -9.2 9.48 c0 5.48 3.72 9.56 9.2 9.56 z"/></g>
			</g>
		</svg>
	